<?xml version="1.0" encoding="utf-8"?>
<!-- Svg Vector Icons : http://www.onlinewebfonts.com/icon -->
<!DOCTYPE svg PUBLIC "-//W3C//DTD SVG 1.1//EN" "http://www.w3.org/Graphics/SVG/1.1/DTD/svg11.dtd">
<svg version="1.1" xmlns="http://www.w3.org/2000/svg" xmlns:xlink="http://www.w3.org/1999/xlink" x="0px" y="0px" viewBox="0 0 1000 1000" enable-background="new 0 0 1000 1000" xml:space="preserve">
<metadata> Svg Vector Icons : http://www.onlinewebfonts.com/icon </metadata>
<g><path d="M990,581.7L500,112.1L10,581.7h183.7v265.4c0,22.6,18.3,40.8,40.9,40.8h102.1c22.5,0,40.8-18.3,40.8-40.8V663.3h245v183.7c0,22.6,18.3,40.8,40.8,40.8h102.1c22.6,0,40.9-18.3,40.9-40.8V663.3v-81.6H990z M765.4,593.6v69.8v183.7h0H663.3l0-183.7v-40.8h-40.9h-245h-40.9v40.8v183.7H234.6l0-253.5l0,0v-11.9v0v-40.8h-40.8h-82.1L500,168.7l388.4,372.2h-82.1h-40h-0.8v40.8v0L765.4,593.6L765.4,593.6z"/><path d="M500,145.3"/></g>
</svg>